<svg width="95" height="40" viewBox="0 0 95 40" fill="none" xmlns="http://www.w3.org/2000/svg">
<path d="M7.32916 0.744C7.43316 0.744 7.51716 0.756 7.58116 0.779999C7.65316 0.803999 7.70916 0.852 7.74916 0.924C7.78916 0.988 7.80916 1.096 7.80916 1.248C7.80916 1.392 7.78516 1.5 7.73716 1.572C7.69716 1.644 7.64116 1.692 7.56916 1.716C7.49716 1.732 7.40916 1.74 7.30516 1.74H4.82116V8.592C4.82116 8.696 4.80516 8.788 4.77316 8.868C4.74916 8.948 4.69716 9.008 4.61716 9.048C4.54516 9.096 4.43316 9.12 4.28116 9.12C4.12116 9.12 4.00116 9.096 3.92116 9.048C3.84916 9.008 3.80116 8.948 3.77716 8.868C3.76116 8.78 3.75316 8.684 3.75316 8.58V1.74H1.23316C1.12916 1.74 1.04116 1.732 0.969156 1.716C0.897156 1.692 0.841156 1.644 0.801156 1.572C0.761156 1.5 0.741156 1.392 0.741156 1.248C0.741156 1.096 0.757156 0.988 0.789156 0.924C0.829156 0.852 0.885156 0.803999 0.957156 0.779999C1.03716 0.756 1.12516 0.744 1.22116 0.744H7.32916ZM10.3045 9.18C9.8245 9.18 9.3965 9.1 9.0205 8.94C8.6445 8.78 8.3245 8.564 8.0605 8.292C7.8045 8.012 7.6085 7.692 7.4725 7.332C7.3365 6.972 7.2685 6.584 7.2685 6.168C7.2685 5.616 7.3965 5.124 7.6525 4.692C7.9085 4.26 8.2605 3.92 8.7085 3.672C9.1645 3.416 9.6845 3.288 10.2685 3.288C10.6685 3.288 11.0245 3.352 11.3365 3.48C11.6565 3.6 11.9285 3.764 12.1525 3.972C12.3765 4.18 12.5485 4.412 12.6685 4.668C12.7885 4.924 12.8485 5.18 12.8485 5.436C12.8485 5.844 12.7525 6.132 12.5605 6.3C12.3685 6.46 12.1325 6.54 11.8525 6.54H8.3845C8.3765 6.892 8.4685 7.196 8.6605 7.452C8.8605 7.7 9.1085 7.892 9.4045 8.028C9.7085 8.164 10.0125 8.232 10.3165 8.232C10.5405 8.232 10.7325 8.22 10.8925 8.196C11.0525 8.172 11.1925 8.14 11.3125 8.1C11.4325 8.06 11.5365 8.02 11.6245 7.98C11.7125 7.94 11.7885 7.9 11.8525 7.86C11.9245 7.82 11.9925 7.792 12.0565 7.776C12.1285 7.76 12.1965 7.768 12.2605 7.8C12.3325 7.824 12.3885 7.876 12.4285 7.956C12.4765 8.02 12.5085 8.08 12.5245 8.136C12.5405 8.192 12.5485 8.252 12.5485 8.316C12.5485 8.428 12.4525 8.552 12.2605 8.688C12.0685 8.824 11.8005 8.94 11.4565 9.036C11.1205 9.132 10.7365 9.18 10.3045 9.18ZM8.3845 5.832H11.3965C11.5485 5.832 11.6605 5.812 11.7325 5.772C11.8125 5.732 11.8525 5.624 11.8525 5.448C11.8525 5.224 11.7845 5.024 11.6485 4.848C11.5125 4.664 11.3245 4.516 11.0845 4.404C10.8525 4.292 10.5845 4.236 10.2805 4.236C9.9285 4.236 9.6045 4.308 9.3085 4.452C9.0205 4.588 8.7925 4.776 8.6245 5.016C8.4565 5.256 8.3765 5.528 8.3845 5.832ZM16.785 9.144C16.369 9.144 15.977 9.076 15.609 8.94C15.249 8.804 14.929 8.608 14.649 8.352C14.377 8.096 14.161 7.792 14.001 7.44C13.849 7.08 13.773 6.672 13.773 6.216C13.773 5.76 13.849 5.356 14.001 5.004C14.161 4.644 14.377 4.336 14.649 4.08C14.921 3.824 15.237 3.628 15.597 3.492C15.965 3.356 16.353 3.288 16.761 3.288C17.033 3.288 17.301 3.332 17.565 3.42C17.829 3.5 18.061 3.608 18.261 3.744C18.469 3.872 18.617 4.008 18.705 4.152C18.785 4.256 18.841 4.344 18.873 4.416C18.913 4.48 18.917 4.556 18.885 4.644C18.853 4.708 18.809 4.768 18.753 4.824C18.697 4.872 18.641 4.912 18.585 4.944C18.441 5.056 18.297 5.072 18.153 4.992C18.065 4.904 17.965 4.824 17.853 4.752C17.749 4.672 17.637 4.6 17.517 4.536C17.397 4.472 17.273 4.424 17.145 4.392C17.025 4.352 16.897 4.332 16.761 4.332C16.385 4.332 16.053 4.412 15.765 4.572C15.477 4.724 15.253 4.944 15.093 5.232C14.941 5.512 14.865 5.84 14.865 6.216C14.865 6.592 14.941 6.92 15.093 7.2C15.253 7.48 15.473 7.7 15.753 7.86C16.041 8.02 16.369 8.1 16.737 8.1C16.905 8.1 17.065 8.08 17.217 8.04C17.377 7.992 17.525 7.932 17.661 7.86C17.797 7.78 17.909 7.696 17.997 7.608C18.077 7.552 18.145 7.504 18.201 7.464C18.257 7.424 18.325 7.404 18.405 7.404C18.469 7.404 18.537 7.432 18.609 7.488C18.681 7.536 18.757 7.612 18.837 7.716C18.901 7.788 18.937 7.864 18.945 7.944C18.961 8.024 18.949 8.1 18.909 8.172C18.869 8.244 18.805 8.316 18.717 8.388C18.589 8.516 18.417 8.64 18.201 8.76C17.993 8.872 17.765 8.964 17.517 9.036C17.269 9.108 17.025 9.144 16.785 9.144ZM20.5164 9.12C20.3644 9.12 20.2484 9.096 20.1684 9.048C20.0884 9.008 20.0364 8.948 20.0124 8.868C19.9964 8.78 19.9884 8.68 19.9884 8.568V1.176C19.9884 1.064 20.0004 0.968 20.0244 0.887999C20.0484 0.807999 20.1004 0.747999 20.1804 0.707999C20.2604 0.66 20.3764 0.636 20.5284 0.636C20.6884 0.636 20.8044 0.66 20.8764 0.707999C20.9564 0.747999 21.0044 0.807999 21.0204 0.887999C21.0444 0.968 21.0564 1.068 21.0564 1.188V4.152C21.2484 3.928 21.4804 3.728 21.7524 3.552C22.0324 3.376 22.3724 3.288 22.7724 3.288C23.2444 3.288 23.6644 3.4 24.0324 3.624C24.4084 3.84 24.7044 4.148 24.9204 4.548C25.1444 4.948 25.2564 5.424 25.2564 5.976V8.58C25.2564 8.692 25.2444 8.788 25.2204 8.868C25.1964 8.948 25.1484 9.008 25.0764 9.048C25.0044 9.096 24.8884 9.12 24.7284 9.12C24.5764 9.12 24.4604 9.096 24.3804 9.048C24.3004 9.008 24.2484 8.948 24.2244 8.868C24.2004 8.78 24.1884 8.68 24.1884 8.568V5.964C24.1884 5.628 24.1324 5.336 24.0204 5.088C23.9084 4.84 23.7404 4.648 23.5164 4.512C23.3004 4.376 23.0244 4.308 22.6884 4.308C22.2324 4.308 21.8564 4.44 21.5604 4.704C21.2724 4.96 21.1044 5.304 21.0564 5.736V8.58C21.0564 8.692 21.0444 8.788 21.0204 8.868C20.9964 8.948 20.9444 9.008 20.8644 9.048C20.7924 9.096 20.6764 9.12 20.5164 9.12ZM27.0223 9.108C26.8703 9.108 26.7543 9.084 26.6743 9.036C26.6023 8.996 26.5543 8.936 26.5303 8.856C26.5143 8.776 26.5063 8.68 26.5063 8.568V3.804C26.5063 3.7 26.5183 3.612 26.5423 3.54C26.5663 3.468 26.6143 3.412 26.6863 3.372C26.7663 3.332 26.8823 3.312 27.0343 3.312C27.1543 3.312 27.2463 3.328 27.3103 3.36C27.3823 3.384 27.4303 3.42 27.4543 3.468C27.4863 3.516 27.5063 3.568 27.5143 3.624C27.5223 3.68 27.5263 3.732 27.5263 3.78L27.5023 4.332C27.5823 4.196 27.6823 4.068 27.8023 3.948C27.9223 3.82 28.0623 3.708 28.2223 3.612C28.3823 3.508 28.5543 3.428 28.7383 3.372C28.9303 3.316 29.1343 3.288 29.3503 3.288C29.7023 3.288 30.0263 3.352 30.3223 3.48C30.6183 3.6 30.8703 3.78 31.0783 4.02C31.2943 4.252 31.4583 4.532 31.5703 4.86C31.6903 5.188 31.7503 5.56 31.7503 5.976V8.58C31.7503 8.692 31.7383 8.788 31.7143 8.868C31.6983 8.948 31.6503 9.008 31.5703 9.048C31.4983 9.088 31.3863 9.108 31.2343 9.108C31.0743 9.108 30.9543 9.084 30.8743 9.036C30.8023 8.996 30.7543 8.936 30.7303 8.856C30.7063 8.776 30.6943 8.68 30.6943 8.568V5.964C30.6943 5.628 30.6383 5.336 30.5263 5.088C30.4143 4.84 30.2463 4.648 30.0223 4.512C29.7983 4.368 29.5143 4.296 29.1703 4.296C28.8423 4.296 28.5543 4.368 28.3063 4.512C28.0663 4.648 27.8783 4.84 27.7423 5.088C27.6143 5.336 27.5503 5.628 27.5503 5.964V8.58C27.5503 8.692 27.5383 8.788 27.5143 8.868C27.4903 8.948 27.4383 9.008 27.3583 9.048C27.2863 9.088 27.1743 9.108 27.0223 9.108ZM35.802 9.192C35.41 9.192 35.034 9.116 34.674 8.964C34.322 8.812 34.006 8.604 33.726 8.34C33.446 8.068 33.226 7.752 33.066 7.392C32.906 7.032 32.826 6.64 32.826 6.216C32.826 5.8 32.902 5.416 33.054 5.064C33.206 4.704 33.418 4.388 33.69 4.116C33.962 3.844 34.274 3.632 34.626 3.48C34.986 3.32 35.37 3.24 35.778 3.24C36.33 3.24 36.826 3.372 37.266 3.636C37.714 3.892 38.07 4.244 38.334 4.692C38.598 5.14 38.73 5.644 38.73 6.204C38.73 6.644 38.65 7.048 38.49 7.416C38.33 7.776 38.114 8.088 37.842 8.352C37.57 8.616 37.258 8.824 36.906 8.976C36.554 9.12 36.186 9.192 35.802 9.192ZM35.778 8.148C36.114 8.148 36.426 8.064 36.714 7.896C37.002 7.728 37.234 7.496 37.41 7.2C37.586 6.904 37.674 6.568 37.674 6.192C37.674 5.816 37.59 5.484 37.422 5.196C37.262 4.908 37.038 4.684 36.75 4.524C36.462 4.364 36.134 4.284 35.766 4.284C35.414 4.284 35.094 4.368 34.806 4.536C34.526 4.704 34.298 4.932 34.122 5.22C33.954 5.508 33.87 5.836 33.87 6.204C33.87 6.588 33.958 6.928 34.134 7.224C34.31 7.512 34.542 7.74 34.83 7.908C35.126 8.068 35.442 8.148 35.778 8.148ZM41.7128 9.12C41.4568 9.12 41.2248 9.096 41.0168 9.048C40.8168 9.008 40.6408 8.94 40.4888 8.844C40.3368 8.748 40.2088 8.624 40.1048 8.472C40.0088 8.32 39.9368 8.136 39.8888 7.92C39.8488 7.704 39.8288 7.452 39.8288 7.164V1.164C39.8288 1.044 39.8368 0.944 39.8528 0.864C39.8768 0.784 39.9288 0.724 40.0088 0.684C40.0888 0.635999 40.2008 0.611999 40.3448 0.611999C40.5048 0.611999 40.6208 0.631999 40.6928 0.672C40.7728 0.712 40.8248 0.772 40.8488 0.852C40.8728 0.932 40.8848 1.028 40.8848 1.14V7.152C40.8848 7.312 40.9008 7.452 40.9328 7.572C40.9648 7.684 41.0128 7.78 41.0768 7.86C41.1488 7.94 41.2368 7.996 41.3408 8.028C41.4448 8.06 41.5688 8.076 41.7128 8.076C41.8088 8.076 41.8888 8.088 41.9528 8.112C42.0248 8.136 42.0808 8.184 42.1208 8.256C42.1608 8.328 42.1808 8.44 42.1808 8.592C42.1808 8.752 42.1608 8.872 42.1208 8.952C42.0808 9.024 42.0248 9.068 41.9528 9.084C41.8888 9.108 41.8088 9.12 41.7128 9.12ZM45.8918 9.192C45.4998 9.192 45.1238 9.116 44.7638 8.964C44.4118 8.812 44.0958 8.604 43.8158 8.34C43.5358 8.068 43.3158 7.752 43.1558 7.392C42.9958 7.032 42.9158 6.64 42.9158 6.216C42.9158 5.8 42.9918 5.416 43.1438 5.064C43.2958 4.704 43.5078 4.388 43.7798 4.116C44.0518 3.844 44.3638 3.632 44.7158 3.48C45.0758 3.32 45.4598 3.24 45.8678 3.24C46.4198 3.24 46.9158 3.372 47.3558 3.636C47.8038 3.892 48.1598 4.244 48.4238 4.692C48.6878 5.14 48.8198 5.644 48.8198 6.204C48.8198 6.644 48.7398 7.048 48.5798 7.416C48.4198 7.776 48.2038 8.088 47.9318 8.352C47.6598 8.616 47.3478 8.824 46.9958 8.976C46.6438 9.12 46.2758 9.192 45.8918 9.192ZM45.8678 8.148C46.2038 8.148 46.5158 8.064 46.8038 7.896C47.0918 7.728 47.3238 7.496 47.4998 7.2C47.6758 6.904 47.7638 6.568 47.7638 6.192C47.7638 5.816 47.6798 5.484 47.5118 5.196C47.3518 4.908 47.1278 4.684 46.8398 4.524C46.5518 4.364 46.2238 4.284 45.8558 4.284C45.5038 4.284 45.1838 4.368 44.8958 4.536C44.6158 4.704 44.3878 4.932 44.2118 5.22C44.0438 5.508 43.9598 5.836 43.9598 6.204C43.9598 6.588 44.0478 6.928 44.2238 7.224C44.3998 7.512 44.6318 7.74 44.9198 7.908C45.2158 8.068 45.5318 8.148 45.8678 8.148ZM52.4267 11.472C52.1467 11.472 51.8787 11.44 51.6227 11.376C51.3667 11.312 51.1427 11.228 50.9507 11.124C50.7587 11.02 50.6067 10.908 50.4947 10.788C50.3827 10.668 50.3267 10.556 50.3267 10.452C50.3267 10.372 50.3387 10.304 50.3627 10.248C50.3867 10.2 50.4227 10.148 50.4707 10.092C50.5507 10.012 50.6147 9.956 50.6627 9.924C50.7107 9.892 50.7747 9.876 50.8547 9.876C50.9347 9.876 51.0147 9.908 51.0947 9.972C51.1747 10.044 51.2707 10.12 51.3827 10.2C51.5027 10.288 51.6467 10.364 51.8147 10.428C51.9907 10.5 52.2067 10.536 52.4627 10.536C52.7267 10.536 52.9627 10.496 53.1707 10.416C53.3787 10.336 53.5587 10.216 53.7107 10.056C53.8627 9.896 53.9787 9.7 54.0587 9.468C54.1387 9.244 54.1787 8.988 54.1787 8.7L54.1547 3.708C54.1627 3.556 54.2067 3.448 54.2867 3.384C54.3747 3.32 54.5107 3.288 54.6947 3.288C54.8467 3.288 54.9547 3.312 55.0187 3.36C55.0907 3.4 55.1347 3.46 55.1507 3.54C55.1747 3.612 55.1867 3.704 55.1867 3.816V8.784C55.1867 9.208 55.1187 9.584 54.9827 9.912C54.8467 10.248 54.6547 10.532 54.4067 10.764C54.1587 10.996 53.8667 11.172 53.5307 11.292C53.1947 11.412 52.8267 11.472 52.4267 11.472ZM52.3907 8.988C52.0067 8.988 51.6507 8.92 51.3227 8.784C51.0027 8.64 50.7187 8.44 50.4707 8.184C50.2307 7.928 50.0427 7.628 49.9067 7.284C49.7787 6.94 49.7147 6.564 49.7147 6.156C49.7147 5.748 49.7787 5.372 49.9067 5.028C50.0427 4.684 50.2307 4.384 50.4707 4.128C50.7107 3.872 50.9907 3.676 51.3107 3.54C51.6387 3.396 51.9947 3.324 52.3787 3.324C52.7307 3.324 53.0507 3.392 53.3387 3.528C53.6267 3.664 53.8707 3.86 54.0707 4.116C54.2787 4.364 54.4347 4.66 54.5387 5.004C54.6427 5.348 54.6947 5.732 54.6947 6.156C54.6947 6.732 54.6027 7.232 54.4187 7.656C54.2347 8.08 53.9707 8.408 53.6267 8.64C53.2827 8.872 52.8707 8.988 52.3907 8.988ZM52.4507 8.004C52.7707 8.004 53.0587 7.924 53.3147 7.764C53.5707 7.604 53.7747 7.384 53.9267 7.104C54.0787 6.824 54.1547 6.5 54.1547 6.132C54.1547 5.772 54.0787 5.456 53.9267 5.184C53.7747 4.904 53.5667 4.688 53.3027 4.536C53.0467 4.384 52.7547 4.308 52.4267 4.308C52.0987 4.308 51.8067 4.384 51.5507 4.536C51.2947 4.688 51.0947 4.904 50.9507 5.184C50.8147 5.456 50.7467 5.776 50.7467 6.144C50.7467 6.512 50.8187 6.836 50.9627 7.116C51.1067 7.388 51.3067 7.604 51.5627 7.764C51.8187 7.924 52.1147 8.004 52.4507 8.004ZM57.6142 11.448C57.4222 11.368 57.3102 11.276 57.2782 11.172C57.2462 11.068 57.2742 10.924 57.3622 10.74L60.5422 3.6C60.6302 3.416 60.7222 3.304 60.8182 3.264C60.9222 3.216 61.0662 3.232 61.2502 3.312C61.4422 3.4 61.5502 3.496 61.5742 3.6C61.6062 3.704 61.5822 3.844 61.5022 4.02L58.2982 11.196C58.2182 11.38 58.1302 11.488 58.0342 11.52C57.9382 11.552 57.7982 11.528 57.6142 11.448ZM58.8022 8.352L56.0542 4.116C55.9502 3.956 55.9102 3.824 55.9342 3.72C55.9582 3.608 56.0502 3.5 56.2102 3.396C56.3862 3.284 56.5262 3.244 56.6302 3.276C56.7422 3.3 56.8542 3.392 56.9662 3.552L59.2942 7.212L58.8022 8.352ZM68.1895 9.24C67.8855 9.24 67.5975 9.204 67.3255 9.132C67.0615 9.06 66.8175 8.964 66.5935 8.844C66.3775 8.716 66.1855 8.576 66.0175 8.424C65.8495 8.272 65.7175 8.12 65.6215 7.968C65.5335 7.84 65.4775 7.736 65.4535 7.656C65.4295 7.568 65.4335 7.484 65.4655 7.404C65.5055 7.324 65.5815 7.236 65.6935 7.14C65.8215 7.044 65.9335 7 66.0295 7.008C66.1255 7.008 66.2135 7.044 66.2935 7.116C66.3815 7.188 66.4695 7.284 66.5575 7.404C66.7575 7.676 67.0015 7.876 67.2895 8.004C67.5775 8.124 67.8615 8.184 68.1415 8.184C68.5015 8.184 68.8215 8.136 69.1015 8.04C69.3815 7.944 69.6015 7.8 69.7615 7.608C69.9295 7.408 70.0135 7.152 70.0135 6.84C70.0135 6.584 69.9495 6.368 69.8215 6.192C69.6935 6.016 69.5215 5.868 69.3055 5.748C69.0895 5.62 68.8495 5.512 68.5855 5.424C68.3215 5.328 68.0535 5.236 67.7815 5.148C67.5655 5.076 67.3535 4.996 67.1455 4.908C66.9375 4.812 66.7415 4.708 66.5575 4.596C66.3735 4.476 66.2095 4.336 66.0655 4.176C65.9295 4.016 65.8215 3.828 65.7415 3.612C65.6695 3.396 65.6335 3.144 65.6335 2.856C65.6335 2.416 65.7375 2.028 65.9455 1.692C66.1615 1.356 66.4615 1.096 66.8455 0.912C67.2295 0.72 67.6735 0.624 68.1775 0.624C68.4735 0.624 68.7455 0.652 68.9935 0.707999C69.2415 0.764 69.4615 0.84 69.6535 0.935999C69.8455 1.024 70.0095 1.12 70.1455 1.224C70.2815 1.32 70.3855 1.412 70.4575 1.5C70.6015 1.652 70.6815 1.78 70.6975 1.884C70.7135 1.988 70.6535 2.116 70.5175 2.268C70.3895 2.412 70.2655 2.488 70.1455 2.496C70.0255 2.504 69.8935 2.448 69.7495 2.328C69.5975 2.152 69.4375 2.016 69.2695 1.92C69.1095 1.824 68.9375 1.76 68.7535 1.728C68.5775 1.688 68.3815 1.668 68.1655 1.668C67.9575 1.668 67.7615 1.696 67.5775 1.752C67.4015 1.8 67.2455 1.876 67.1095 1.98C66.9815 2.084 66.8815 2.212 66.8095 2.364C66.7375 2.508 66.7015 2.676 66.7015 2.868C66.7015 3.084 66.7575 3.268 66.8695 3.42C66.9895 3.572 67.1455 3.704 67.3375 3.816C67.5295 3.92 67.7455 4.016 67.9855 4.104C68.2255 4.184 68.4775 4.264 68.7415 4.344C69.0295 4.432 69.3135 4.54 69.5935 4.668C69.8735 4.788 70.1255 4.94 70.3495 5.124C70.5735 5.3 70.7535 5.524 70.8895 5.796C71.0255 6.068 71.0935 6.404 71.0935 6.804C71.0935 7.204 71.0135 7.556 70.8535 7.86C70.7015 8.164 70.4895 8.42 70.2175 8.628C69.9455 8.828 69.6335 8.98 69.2815 9.084C68.9375 9.188 68.5735 9.24 68.1895 9.24ZM74.8397 9.12C74.4637 9.12 74.1437 9.084 73.8797 9.012C73.6237 8.94 73.4117 8.828 73.2437 8.676C73.0757 8.524 72.9557 8.328 72.8837 8.088C72.8117 7.84 72.7757 7.536 72.7757 7.176V1.872C72.7757 1.76 72.7877 1.664 72.8117 1.584C72.8357 1.504 72.8837 1.444 72.9557 1.404C73.0277 1.356 73.1397 1.332 73.2917 1.332C73.4437 1.332 73.5597 1.356 73.6397 1.404C73.7197 1.444 73.7717 1.504 73.7957 1.584C73.8197 1.656 73.8317 1.748 73.8317 1.86V7.176C73.8317 7.384 73.8477 7.552 73.8797 7.68C73.9197 7.8 73.9757 7.892 74.0477 7.956C74.1277 8.02 74.2317 8.06 74.3597 8.076C74.4877 8.092 74.6437 8.1 74.8277 8.1C74.9557 8.1 75.0597 8.112 75.1397 8.136C75.2197 8.16 75.2797 8.208 75.3197 8.28C75.3597 8.352 75.3797 8.46 75.3797 8.604C75.3797 8.756 75.3557 8.872 75.3077 8.952C75.2677 9.024 75.2037 9.068 75.1157 9.084C75.0357 9.108 74.9437 9.12 74.8397 9.12ZM72.1517 3.444L73.3037 3.456L74.9717 3.432C75.0837 3.432 75.1797 3.444 75.2597 3.468C75.3397 3.484 75.3997 3.532 75.4397 3.612C75.4877 3.684 75.5117 3.796 75.5117 3.948C75.5117 4.1 75.4917 4.216 75.4517 4.296C75.4117 4.368 75.3517 4.416 75.2717 4.44C75.1917 4.464 75.0957 4.476 74.9837 4.476L73.3397 4.452L72.1277 4.464C71.9597 4.464 71.8437 4.424 71.7797 4.344C71.7237 4.264 71.6957 4.132 71.6957 3.948C71.6957 3.772 71.7317 3.644 71.8037 3.564C71.8757 3.484 71.9917 3.444 72.1517 3.444ZM81.5594 9.108C81.3834 9.108 81.2554 9.072 81.1754 9C81.1034 8.928 81.0594 8.816 81.0434 8.664L81.0914 8.064C81.0114 8.192 80.8874 8.34 80.7194 8.508C80.5514 8.668 80.3314 8.812 80.0594 8.94C79.7874 9.06 79.4554 9.12 79.0634 9.12C78.6794 9.12 78.3194 9.044 77.9834 8.892C77.6554 8.74 77.3634 8.528 77.1074 8.256C76.8594 7.984 76.6634 7.672 76.5194 7.32C76.3834 6.968 76.3154 6.592 76.3154 6.192C76.3154 5.8 76.3834 5.432 76.5194 5.088C76.6634 4.736 76.8634 4.428 77.1194 4.164C77.3754 3.9 77.6674 3.692 77.9954 3.54C78.3314 3.388 78.6874 3.312 79.0634 3.312C79.4154 3.312 79.7154 3.36 79.9634 3.456C80.2114 3.544 80.4234 3.664 80.5994 3.816C80.7834 3.96 80.9434 4.124 81.0794 4.308L81.0554 3.804C81.0474 3.628 81.0834 3.504 81.1634 3.432C81.2514 3.352 81.3874 3.312 81.5714 3.312C81.7234 3.312 81.8314 3.336 81.8954 3.384C81.9674 3.432 82.0154 3.5 82.0394 3.588C82.0634 3.676 82.0754 3.784 82.0754 3.912V8.544C82.0754 8.656 82.0634 8.756 82.0394 8.844C82.0154 8.932 81.9674 8.996 81.8954 9.036C81.8234 9.084 81.7114 9.108 81.5594 9.108ZM79.2434 8.112C79.5634 8.112 79.8554 8.028 80.1194 7.86C80.3914 7.692 80.6034 7.468 80.7554 7.188C80.9154 6.9 80.9954 6.572 80.9954 6.204C80.9954 5.828 80.9114 5.5 80.7434 5.22C80.5834 4.932 80.3674 4.708 80.0954 4.548C79.8314 4.38 79.5394 4.296 79.2194 4.296C78.8434 4.296 78.5154 4.384 78.2354 4.56C77.9634 4.728 77.7474 4.956 77.5874 5.244C77.4274 5.532 77.3474 5.86 77.3474 6.228C77.3474 6.588 77.4274 6.912 77.5874 7.2C77.7474 7.48 77.9674 7.704 78.2474 7.872C78.5354 8.032 78.8674 8.112 79.2434 8.112ZM86.242 9.144C85.826 9.144 85.434 9.076 85.066 8.94C84.706 8.804 84.386 8.608 84.106 8.352C83.834 8.096 83.618 7.792 83.458 7.44C83.306 7.08 83.23 6.672 83.23 6.216C83.23 5.76 83.306 5.356 83.458 5.004C83.618 4.644 83.834 4.336 84.106 4.08C84.378 3.824 84.694 3.628 85.054 3.492C85.422 3.356 85.81 3.288 86.218 3.288C86.49 3.288 86.758 3.332 87.022 3.42C87.286 3.5 87.518 3.608 87.718 3.744C87.926 3.872 88.074 4.008 88.162 4.152C88.242 4.256 88.298 4.344 88.33 4.416C88.37 4.48 88.374 4.556 88.342 4.644C88.31 4.708 88.266 4.768 88.21 4.824C88.154 4.872 88.098 4.912 88.042 4.944C87.898 5.056 87.754 5.072 87.61 4.992C87.522 4.904 87.422 4.824 87.31 4.752C87.206 4.672 87.094 4.6 86.974 4.536C86.854 4.472 86.73 4.424 86.602 4.392C86.482 4.352 86.354 4.332 86.218 4.332C85.842 4.332 85.51 4.412 85.222 4.572C84.934 4.724 84.71 4.944 84.55 5.232C84.398 5.512 84.322 5.84 84.322 6.216C84.322 6.592 84.398 6.92 84.55 7.2C84.71 7.48 84.93 7.7 85.21 7.86C85.498 8.02 85.826 8.1 86.194 8.1C86.362 8.1 86.522 8.08 86.674 8.04C86.834 7.992 86.982 7.932 87.118 7.86C87.254 7.78 87.366 7.696 87.454 7.608C87.534 7.552 87.602 7.504 87.658 7.464C87.714 7.424 87.782 7.404 87.862 7.404C87.926 7.404 87.994 7.432 88.066 7.488C88.138 7.536 88.214 7.612 88.294 7.716C88.358 7.788 88.394 7.864 88.402 7.944C88.418 8.024 88.406 8.1 88.366 8.172C88.326 8.244 88.262 8.316 88.174 8.388C88.046 8.516 87.874 8.64 87.658 8.76C87.45 8.872 87.222 8.964 86.974 9.036C86.726 9.108 86.482 9.144 86.242 9.144ZM94.0638 8.184C94.2158 8.304 94.2958 8.42 94.3038 8.532C94.3198 8.644 94.2638 8.776 94.1358 8.928C94.0398 9.04 93.9518 9.112 93.8718 9.144C93.7998 9.184 93.7238 9.188 93.6438 9.156C93.5638 9.132 93.4718 9.076 93.3678 8.988L90.6558 6.78V8.58C90.6558 8.692 90.6398 8.788 90.6077 8.868C90.5838 8.948 90.5358 9.008 90.4638 9.048C90.3918 9.096 90.2758 9.12 90.1158 9.12C89.9718 9.12 89.8598 9.096 89.7798 9.048C89.6998 9.008 89.6478 8.948 89.6238 8.868C89.6078 8.78 89.5998 8.68 89.5998 8.568V1.164C89.5998 1.052 89.6118 0.955999 89.6357 0.875999C89.6598 0.796 89.7118 0.736 89.7918 0.696C89.8718 0.648 89.9838 0.624 90.1278 0.624C90.2878 0.624 90.4038 0.648 90.4758 0.696C90.5478 0.736 90.5958 0.799999 90.6198 0.887999C90.6438 0.968 90.6558 1.064 90.6558 1.176V5.424L92.6358 3.528C92.7238 3.44 92.8078 3.38 92.8878 3.348C92.9758 3.308 93.0598 3.3 93.1398 3.324C93.2278 3.348 93.3158 3.412 93.4038 3.516C93.5478 3.676 93.6158 3.812 93.6078 3.924C93.6078 4.028 93.5358 4.148 93.3918 4.284L91.4478 6.12L94.0638 8.184ZM46.1987 24.144C45.6547 24.144 45.1907 24.06 44.8067 23.892C44.4227 23.716 44.1267 23.46 43.9187 23.124C43.7187 22.788 43.6187 22.384 43.6187 21.912C43.6187 21.656 43.6787 21.4 43.7987 21.144C43.9187 20.88 44.0907 20.616 44.3147 20.352C44.5467 20.08 44.8227 19.816 45.1427 19.56C45.0307 19.328 44.9267 19.096 44.8307 18.864C44.7427 18.624 44.6747 18.392 44.6267 18.168C44.5787 17.936 44.5547 17.716 44.5547 17.508C44.5547 17.1 44.6467 16.748 44.8307 16.452C45.0147 16.156 45.2747 15.928 45.6107 15.768C45.9467 15.608 46.3467 15.528 46.8107 15.528C47.2107 15.528 47.5547 15.604 47.8427 15.756C48.1387 15.9 48.3667 16.104 48.5267 16.368C48.6867 16.632 48.7667 16.948 48.7667 17.316C48.7667 17.492 48.7107 17.68 48.5987 17.88C48.4867 18.072 48.3267 18.276 48.1187 18.492C47.9107 18.7 47.6707 18.92 47.3987 19.152C47.1267 19.376 46.8307 19.612 46.5107 19.86C46.7267 20.18 46.9467 20.484 47.1707 20.772C47.4027 21.052 47.6387 21.308 47.8787 21.54C48.1267 21.764 48.3627 21.956 48.5867 22.116C48.8987 21.86 49.1147 21.624 49.2347 21.408C49.3547 21.184 49.4387 20.96 49.4867 20.736C49.5107 20.64 49.5667 20.56 49.6547 20.496C49.7427 20.424 49.8907 20.388 50.0987 20.388C50.2347 20.388 50.3347 20.412 50.3987 20.46C50.4707 20.5 50.5187 20.556 50.5427 20.628C50.5747 20.692 50.5867 20.756 50.5787 20.82C50.5627 21.124 50.4547 21.428 50.2547 21.732C50.0627 22.036 49.7947 22.344 49.4507 22.656C49.5787 22.696 49.6907 22.732 49.7867 22.764C49.8907 22.796 50.0067 22.82 50.1347 22.836C50.2627 22.844 50.4267 22.848 50.6267 22.848C50.8107 22.848 50.9387 22.888 51.0107 22.968C51.0907 23.04 51.1307 23.172 51.1307 23.364C51.1307 23.596 51.0947 23.752 51.0227 23.832C50.9507 23.912 50.8147 23.952 50.6147 23.952C50.3907 23.952 50.1587 23.936 49.9187 23.904C49.6867 23.872 49.4547 23.816 49.2227 23.736C48.9907 23.656 48.7507 23.548 48.5027 23.412C48.2867 23.564 48.0507 23.696 47.7947 23.808C47.5387 23.92 47.2747 24.004 47.0027 24.06C46.7387 24.116 46.4707 24.144 46.1987 24.144ZM46.1987 23.124C46.4707 23.124 46.7307 23.088 46.9787 23.016C47.2267 22.944 47.4347 22.852 47.6027 22.74C47.4667 22.612 47.3147 22.468 47.1467 22.308C46.9787 22.14 46.8107 21.96 46.6427 21.768C46.4747 21.576 46.3067 21.372 46.1387 21.156C45.9707 20.94 45.8107 20.72 45.6587 20.496C45.4907 20.656 45.3467 20.8 45.2267 20.928C45.1067 21.048 45.0107 21.16 44.9387 21.264C44.8667 21.36 44.8147 21.464 44.7827 21.576C44.7507 21.68 44.7347 21.792 44.7347 21.912C44.7347 22.16 44.7947 22.376 44.9147 22.56C45.0347 22.744 45.2027 22.884 45.4187 22.98C45.6427 23.076 45.9027 23.124 46.1987 23.124ZM46.0187 19.008C46.2827 18.808 46.5187 18.628 46.7267 18.468C46.9427 18.3 47.1227 18.144 47.2667 18C47.4107 17.856 47.5227 17.724 47.6027 17.604C47.6827 17.484 47.7227 17.38 47.7227 17.292C47.7227 17.028 47.6387 16.816 47.4707 16.656C47.3027 16.488 47.0787 16.404 46.7987 16.404C46.5507 16.404 46.3347 16.448 46.1507 16.536C45.9667 16.616 45.8227 16.732 45.7187 16.884C45.6227 17.036 45.5747 17.22 45.5747 17.436C45.5747 17.572 45.5907 17.716 45.6227 17.868C45.6547 18.012 45.7027 18.176 45.7667 18.36C45.8307 18.544 45.9147 18.76 46.0187 19.008ZM22.4265 38.352C22.4905 38.472 22.5225 38.576 22.5225 38.664C22.5305 38.744 22.5065 38.82 22.4505 38.892C22.3945 38.956 22.3065 39.016 22.1865 39.072C21.9945 39.16 21.8425 39.18 21.7305 39.132C21.6265 39.084 21.5305 38.968 21.4425 38.784L18.4425 32.4L15.4665 38.772C15.3785 38.956 15.2785 39.072 15.1665 39.12C15.0625 39.168 14.9105 39.148 14.7105 39.06C14.5905 39.012 14.5025 38.952 14.4465 38.88C14.3985 38.808 14.3785 38.72 14.3865 38.616C14.4025 38.512 14.4425 38.392 14.5065 38.256L17.9505 31.068C17.9985 30.972 18.0665 30.896 18.1545 30.84C18.2505 30.776 18.3505 30.744 18.4545 30.744C18.5265 30.744 18.5945 30.756 18.6585 30.78C18.7225 30.804 18.7785 30.84 18.8265 30.888C18.8745 30.936 18.9145 31 18.9465 31.08L22.4265 38.352ZM16.1865 36.732L16.5945 35.808H20.3145L20.7105 36.732H16.1865ZM23.9637 39.12C23.8117 39.12 23.6957 39.096 23.6157 39.048C23.5437 39.008 23.4957 38.948 23.4717 38.868C23.4557 38.78 23.4477 38.68 23.4477 38.568V33.84C23.4477 33.72 23.4597 33.62 23.4837 33.54C23.5077 33.46 23.5557 33.404 23.6277 33.372C23.6997 33.332 23.8157 33.312 23.9757 33.312C24.1197 33.312 24.2277 33.332 24.2997 33.372C24.3797 33.404 24.4317 33.456 24.4557 33.528C24.4877 33.592 24.5037 33.668 24.5037 33.756L24.4557 34.116C24.5117 34.012 24.5757 33.908 24.6477 33.804C24.7277 33.7 24.8237 33.608 24.9357 33.528C25.0557 33.44 25.1957 33.368 25.3557 33.312C25.5237 33.256 25.7277 33.228 25.9677 33.228C26.0877 33.228 26.1997 33.24 26.3037 33.264C26.4157 33.28 26.5197 33.308 26.6157 33.348C26.7197 33.388 26.8077 33.436 26.8797 33.492C26.9517 33.54 27.0077 33.596 27.0477 33.66C27.0957 33.716 27.1197 33.784 27.1197 33.864C27.1197 34.04 27.0637 34.192 26.9517 34.32C26.8397 34.44 26.7237 34.5 26.6037 34.5C26.4997 34.5 26.4237 34.488 26.3757 34.464C26.3277 34.432 26.2797 34.4 26.2317 34.368C26.1917 34.336 26.1317 34.308 26.0517 34.284C25.9717 34.252 25.8437 34.236 25.6677 34.236C25.5477 34.236 25.4197 34.26 25.2837 34.308C25.1557 34.356 25.0317 34.428 24.9117 34.524C24.7917 34.612 24.6917 34.728 24.6117 34.872C24.5397 35.016 24.5037 35.184 24.5037 35.376V38.592C24.5037 38.704 24.4917 38.8 24.4677 38.88C24.4437 38.96 24.3917 39.02 24.3117 39.06C24.2397 39.1 24.1237 39.12 23.9637 39.12ZM30.3787 39.144C29.9627 39.144 29.5707 39.076 29.2027 38.94C28.8427 38.804 28.5227 38.608 28.2427 38.352C27.9707 38.096 27.7547 37.792 27.5947 37.44C27.4427 37.08 27.3667 36.672 27.3667 36.216C27.3667 35.76 27.4427 35.356 27.5947 35.004C27.7547 34.644 27.9707 34.336 28.2427 34.08C28.5147 33.824 28.8307 33.628 29.1907 33.492C29.5587 33.356 29.9467 33.288 30.3547 33.288C30.6267 33.288 30.8947 33.332 31.1587 33.42C31.4227 33.5 31.6547 33.608 31.8547 33.744C32.0627 33.872 32.2107 34.008 32.2987 34.152C32.3787 34.256 32.4347 34.344 32.4667 34.416C32.5067 34.48 32.5107 34.556 32.4787 34.644C32.4467 34.708 32.4027 34.768 32.3467 34.824C32.2907 34.872 32.2347 34.912 32.1787 34.944C32.0347 35.056 31.8907 35.072 31.7467 34.992C31.6587 34.904 31.5587 34.824 31.4467 34.752C31.3427 34.672 31.2307 34.6 31.1107 34.536C30.9907 34.472 30.8667 34.424 30.7387 34.392C30.6187 34.352 30.4907 34.332 30.3547 34.332C29.9787 34.332 29.6467 34.412 29.3587 34.572C29.0707 34.724 28.8467 34.944 28.6867 35.232C28.5347 35.512 28.4587 35.84 28.4587 36.216C28.4587 36.592 28.5347 36.92 28.6867 37.2C28.8467 37.48 29.0667 37.7 29.3467 37.86C29.6347 38.02 29.9627 38.1 30.3307 38.1C30.4987 38.1 30.6587 38.08 30.8107 38.04C30.9707 37.992 31.1187 37.932 31.2547 37.86C31.3907 37.78 31.5027 37.696 31.5907 37.608C31.6707 37.552 31.7387 37.504 31.7947 37.464C31.8507 37.424 31.9187 37.404 31.9987 37.404C32.0627 37.404 32.1307 37.432 32.2027 37.488C32.2747 37.536 32.3507 37.612 32.4307 37.716C32.4947 37.788 32.5307 37.864 32.5387 37.944C32.5547 38.024 32.5427 38.1 32.5027 38.172C32.4627 38.244 32.3987 38.316 32.3107 38.388C32.1827 38.516 32.0107 38.64 31.7947 38.76C31.5867 38.872 31.3587 38.964 31.1107 39.036C30.8627 39.108 30.6187 39.144 30.3787 39.144ZM34.1102 39.12C33.9582 39.12 33.8422 39.096 33.7622 39.048C33.6822 39.008 33.6302 38.948 33.6062 38.868C33.5902 38.78 33.5822 38.68 33.5822 38.568V31.176C33.5822 31.064 33.5942 30.968 33.6182 30.888C33.6422 30.808 33.6942 30.748 33.7742 30.708C33.8542 30.66 33.9702 30.636 34.1222 30.636C34.2822 30.636 34.3982 30.66 34.4702 30.708C34.5502 30.748 34.5982 30.808 34.6142 30.888C34.6382 30.968 34.6502 31.068 34.6502 31.188V34.152C34.8422 33.928 35.0742 33.728 35.3462 33.552C35.6262 33.376 35.9662 33.288 36.3662 33.288C36.8382 33.288 37.2582 33.4 37.6262 33.624C38.0022 33.84 38.2982 34.148 38.5142 34.548C38.7382 34.948 38.8502 35.424 38.8502 35.976V38.58C38.8502 38.692 38.8382 38.788 38.8142 38.868C38.7902 38.948 38.7422 39.008 38.6702 39.048C38.5982 39.096 38.4822 39.12 38.3222 39.12C38.1702 39.12 38.0542 39.096 37.9742 39.048C37.8942 39.008 37.8422 38.948 37.8182 38.868C37.7942 38.78 37.7822 38.68 37.7822 38.568V35.964C37.7822 35.628 37.7262 35.336 37.6142 35.088C37.5022 34.84 37.3342 34.648 37.1102 34.512C36.8942 34.376 36.6182 34.308 36.2822 34.308C35.8262 34.308 35.4502 34.44 35.1542 34.704C34.8662 34.96 34.6982 35.304 34.6502 35.736V38.58C34.6502 38.692 34.6382 38.788 34.6142 38.868C34.5902 38.948 34.5382 39.008 34.4582 39.048C34.3862 39.096 34.2702 39.12 34.1102 39.12ZM40.676 39.12C40.524 39.12 40.408 39.096 40.328 39.048C40.256 39.008 40.208 38.948 40.184 38.868C40.16 38.788 40.148 38.692 40.148 38.58V33.84C40.148 33.728 40.16 33.632 40.184 33.552C40.208 33.472 40.256 33.412 40.328 33.372C40.408 33.332 40.528 33.312 40.688 33.312C40.84 33.312 40.952 33.336 41.024 33.384C41.096 33.424 41.144 33.484 41.168 33.564C41.192 33.644 41.204 33.744 41.204 33.864V38.592C41.204 38.704 41.192 38.8 41.168 38.88C41.144 38.96 41.092 39.02 41.012 39.06C40.94 39.1 40.828 39.12 40.676 39.12ZM40.676 31.872C40.5 31.872 40.368 31.848 40.28 31.8C40.192 31.744 40.132 31.668 40.1 31.572C40.076 31.476 40.064 31.364 40.064 31.236C40.064 31.108 40.08 31 40.112 30.912C40.144 30.816 40.204 30.748 40.292 30.708C40.38 30.66 40.512 30.636 40.688 30.636C40.856 30.636 40.984 30.66 41.072 30.708C41.16 30.756 41.216 30.828 41.24 30.924C41.272 31.02 41.288 31.132 41.288 31.26C41.288 31.388 41.272 31.5 41.24 31.596C41.216 31.684 41.16 31.752 41.072 31.8C40.984 31.848 40.852 31.872 40.676 31.872ZM45.2733 39.12C44.8973 39.12 44.5773 39.084 44.3133 39.012C44.0573 38.94 43.8453 38.828 43.6773 38.676C43.5093 38.524 43.3893 38.328 43.3173 38.088C43.2453 37.84 43.2093 37.536 43.2093 37.176V31.872C43.2093 31.76 43.2213 31.664 43.2453 31.584C43.2693 31.504 43.3173 31.444 43.3893 31.404C43.4613 31.356 43.5733 31.332 43.7253 31.332C43.8773 31.332 43.9933 31.356 44.0733 31.404C44.1533 31.444 44.2053 31.504 44.2293 31.584C44.2533 31.656 44.2653 31.748 44.2653 31.86V37.176C44.2653 37.384 44.2813 37.552 44.3133 37.68C44.3533 37.8 44.4093 37.892 44.4813 37.956C44.5613 38.02 44.6653 38.06 44.7933 38.076C44.9213 38.092 45.0773 38.1 45.2613 38.1C45.3893 38.1 45.4933 38.112 45.5733 38.136C45.6533 38.16 45.7133 38.208 45.7533 38.28C45.7933 38.352 45.8133 38.46 45.8133 38.604C45.8133 38.756 45.7893 38.872 45.7413 38.952C45.7013 39.024 45.6373 39.068 45.5493 39.084C45.4693 39.108 45.3773 39.12 45.2733 39.12ZM42.5853 33.444L43.7373 33.456L45.4053 33.432C45.5173 33.432 45.6133 33.444 45.6933 33.468C45.7733 33.484 45.8333 33.532 45.8733 33.612C45.9213 33.684 45.9453 33.796 45.9453 33.948C45.9453 34.1 45.9253 34.216 45.8853 34.296C45.8453 34.368 45.7853 34.416 45.7053 34.44C45.6253 34.464 45.5293 34.476 45.4173 34.476L43.7733 34.452L42.5613 34.464C42.3933 34.464 42.2773 34.424 42.2133 34.344C42.1573 34.264 42.1293 34.132 42.1293 33.948C42.1293 33.772 42.1653 33.644 42.2373 33.564C42.3093 33.484 42.4253 33.444 42.5853 33.444ZM49.785 39.18C49.305 39.18 48.877 39.1 48.501 38.94C48.125 38.78 47.805 38.564 47.541 38.292C47.285 38.012 47.089 37.692 46.953 37.332C46.817 36.972 46.749 36.584 46.749 36.168C46.749 35.616 46.877 35.124 47.133 34.692C47.389 34.26 47.741 33.92 48.189 33.672C48.645 33.416 49.165 33.288 49.749 33.288C50.149 33.288 50.505 33.352 50.817 33.48C51.137 33.6 51.409 33.764 51.633 33.972C51.857 34.18 52.029 34.412 52.149 34.668C52.269 34.924 52.329 35.18 52.329 35.436C52.329 35.844 52.233 36.132 52.041 36.3C51.849 36.46 51.613 36.54 51.333 36.54H47.865C47.857 36.892 47.949 37.196 48.141 37.452C48.341 37.7 48.589 37.892 48.885 38.028C49.189 38.164 49.493 38.232 49.797 38.232C50.021 38.232 50.213 38.22 50.373 38.196C50.533 38.172 50.673 38.14 50.793 38.1C50.913 38.06 51.017 38.02 51.105 37.98C51.193 37.94 51.269 37.9 51.333 37.86C51.405 37.82 51.473 37.792 51.537 37.776C51.609 37.76 51.677 37.768 51.741 37.8C51.813 37.824 51.869 37.876 51.909 37.956C51.957 38.02 51.989 38.08 52.005 38.136C52.021 38.192 52.029 38.252 52.029 38.316C52.029 38.428 51.933 38.552 51.741 38.688C51.549 38.824 51.281 38.94 50.937 39.036C50.601 39.132 50.217 39.18 49.785 39.18ZM47.865 35.832H50.877C51.029 35.832 51.141 35.812 51.213 35.772C51.293 35.732 51.333 35.624 51.333 35.448C51.333 35.224 51.265 35.024 51.129 34.848C50.993 34.664 50.805 34.516 50.565 34.404C50.333 34.292 50.065 34.236 49.761 34.236C49.409 34.236 49.085 34.308 48.789 34.452C48.501 34.588 48.273 34.776 48.105 35.016C47.937 35.256 47.857 35.528 47.865 35.832ZM56.2654 39.144C55.8494 39.144 55.4574 39.076 55.0894 38.94C54.7294 38.804 54.4094 38.608 54.1294 38.352C53.8574 38.096 53.6414 37.792 53.4814 37.44C53.3294 37.08 53.2534 36.672 53.2534 36.216C53.2534 35.76 53.3294 35.356 53.4814 35.004C53.6414 34.644 53.8574 34.336 54.1294 34.08C54.4014 33.824 54.7174 33.628 55.0774 33.492C55.4454 33.356 55.8334 33.288 56.2414 33.288C56.5134 33.288 56.7814 33.332 57.0454 33.42C57.3094 33.5 57.5414 33.608 57.7414 33.744C57.9494 33.872 58.0974 34.008 58.1854 34.152C58.2654 34.256 58.3214 34.344 58.3534 34.416C58.3934 34.48 58.3974 34.556 58.3654 34.644C58.3334 34.708 58.2894 34.768 58.2334 34.824C58.1774 34.872 58.1214 34.912 58.0654 34.944C57.9214 35.056 57.7774 35.072 57.6334 34.992C57.5454 34.904 57.4454 34.824 57.3334 34.752C57.2294 34.672 57.1174 34.6 56.9974 34.536C56.8774 34.472 56.7534 34.424 56.6254 34.392C56.5054 34.352 56.3774 34.332 56.2414 34.332C55.8654 34.332 55.5334 34.412 55.2454 34.572C54.9574 34.724 54.7334 34.944 54.5734 35.232C54.4214 35.512 54.3454 35.84 54.3454 36.216C54.3454 36.592 54.4214 36.92 54.5734 37.2C54.7334 37.48 54.9534 37.7 55.2334 37.86C55.5214 38.02 55.8494 38.1 56.2174 38.1C56.3854 38.1 56.5454 38.08 56.6974 38.04C56.8574 37.992 57.0054 37.932 57.1414 37.86C57.2774 37.78 57.3894 37.696 57.4774 37.608C57.5574 37.552 57.6254 37.504 57.6814 37.464C57.7374 37.424 57.8054 37.404 57.8854 37.404C57.9494 37.404 58.0174 37.432 58.0894 37.488C58.1614 37.536 58.2374 37.612 58.3174 37.716C58.3814 37.788 58.4174 37.864 58.4254 37.944C58.4414 38.024 58.4294 38.1 58.3894 38.172C58.3494 38.244 58.2854 38.316 58.1974 38.388C58.0694 38.516 57.8974 38.64 57.6814 38.76C57.4734 38.872 57.2454 38.964 56.9974 39.036C56.7494 39.108 56.5054 39.144 56.2654 39.144ZM62.242 39.12C61.866 39.12 61.546 39.084 61.282 39.012C61.026 38.94 60.814 38.828 60.646 38.676C60.478 38.524 60.358 38.328 60.286 38.088C60.214 37.84 60.178 37.536 60.178 37.176V31.872C60.178 31.76 60.19 31.664 60.214 31.584C60.238 31.504 60.286 31.444 60.358 31.404C60.43 31.356 60.542 31.332 60.694 31.332C60.846 31.332 60.962 31.356 61.042 31.404C61.122 31.444 61.174 31.504 61.198 31.584C61.222 31.656 61.234 31.748 61.234 31.86V37.176C61.234 37.384 61.25 37.552 61.282 37.68C61.322 37.8 61.378 37.892 61.45 37.956C61.53 38.02 61.634 38.06 61.762 38.076C61.89 38.092 62.046 38.1 62.23 38.1C62.358 38.1 62.462 38.112 62.542 38.136C62.622 38.16 62.682 38.208 62.722 38.28C62.762 38.352 62.782 38.46 62.782 38.604C62.782 38.756 62.758 38.872 62.71 38.952C62.67 39.024 62.606 39.068 62.518 39.084C62.438 39.108 62.346 39.12 62.242 39.12ZM59.554 33.444L60.706 33.456L62.374 33.432C62.486 33.432 62.582 33.444 62.662 33.468C62.742 33.484 62.802 33.532 62.842 33.612C62.89 33.684 62.914 33.796 62.914 33.948C62.914 34.1 62.894 34.216 62.854 34.296C62.814 34.368 62.754 34.416 62.674 34.44C62.594 34.464 62.498 34.476 62.386 34.476L60.742 34.452L59.53 34.464C59.362 34.464 59.246 34.424 59.182 34.344C59.126 34.264 59.098 34.132 59.098 33.948C59.098 33.772 59.134 33.644 59.206 33.564C59.278 33.484 59.394 33.444 59.554 33.444ZM66.3217 39.132C65.9697 39.132 65.6417 39.068 65.3377 38.94C65.0417 38.812 64.7817 38.632 64.5577 38.4C64.3337 38.168 64.1577 37.888 64.0297 37.56C63.9097 37.232 63.8497 36.86 63.8497 36.444V33.84C63.8497 33.728 63.8617 33.632 63.8857 33.552C63.9097 33.472 63.9577 33.412 64.0297 33.372C64.1097 33.324 64.2257 33.3 64.3777 33.3C64.5297 33.3 64.6417 33.324 64.7137 33.372C64.7937 33.42 64.8457 33.484 64.8697 33.564C64.8937 33.644 64.9057 33.74 64.9057 33.852V36.456C64.9057 36.784 64.9617 37.076 65.0737 37.332C65.1857 37.58 65.3537 37.772 65.5777 37.908C65.8097 38.044 66.0897 38.112 66.4177 38.112C66.7537 38.112 67.0417 38.044 67.2817 37.908C67.5297 37.772 67.7177 37.58 67.8457 37.332C67.9817 37.076 68.0497 36.784 68.0497 36.456V33.84C68.0497 33.728 68.0617 33.632 68.0857 33.552C68.1097 33.472 68.1577 33.412 68.2297 33.372C68.3097 33.324 68.4257 33.3 68.5777 33.3C68.7297 33.3 68.8417 33.324 68.9137 33.372C68.9937 33.42 69.0417 33.484 69.0577 33.564C69.0817 33.644 69.0937 33.74 69.0937 33.852V38.616C69.0937 38.712 69.0817 38.8 69.0577 38.88C69.0417 38.952 68.9937 39.008 68.9137 39.048C68.8417 39.088 68.7297 39.108 68.5777 39.108C68.4657 39.108 68.3737 39.096 68.3017 39.072C68.2377 39.048 68.1897 39.016 68.1577 38.976C68.1257 38.936 68.1017 38.892 68.0857 38.844C68.0777 38.788 68.0737 38.732 68.0737 38.676L68.1217 38.16C68.0417 38.256 67.9457 38.36 67.8337 38.472C67.7217 38.584 67.5897 38.692 67.4377 38.796C67.2937 38.892 67.1297 38.972 66.9457 39.036C66.7617 39.1 66.5537 39.132 66.3217 39.132ZM71.0613 39.12C70.9093 39.12 70.7933 39.096 70.7133 39.048C70.6413 39.008 70.5933 38.948 70.5693 38.868C70.5533 38.78 70.5453 38.68 70.5453 38.568V33.84C70.5453 33.72 70.5573 33.62 70.5813 33.54C70.6053 33.46 70.6533 33.404 70.7253 33.372C70.7973 33.332 70.9133 33.312 71.0733 33.312C71.2173 33.312 71.3253 33.332 71.3973 33.372C71.4773 33.404 71.5293 33.456 71.5533 33.528C71.5853 33.592 71.6013 33.668 71.6013 33.756L71.5533 34.116C71.6093 34.012 71.6733 33.908 71.7453 33.804C71.8253 33.7 71.9213 33.608 72.0333 33.528C72.1533 33.44 72.2933 33.368 72.4533 33.312C72.6213 33.256 72.8253 33.228 73.0653 33.228C73.1853 33.228 73.2973 33.24 73.4013 33.264C73.5133 33.28 73.6173 33.308 73.7133 33.348C73.8173 33.388 73.9053 33.436 73.9773 33.492C74.0493 33.54 74.1053 33.596 74.1453 33.66C74.1933 33.716 74.2173 33.784 74.2173 33.864C74.2173 34.04 74.1613 34.192 74.0493 34.32C73.9373 34.44 73.8213 34.5 73.7013 34.5C73.5973 34.5 73.5213 34.488 73.4733 34.464C73.4253 34.432 73.3773 34.4 73.3293 34.368C73.2893 34.336 73.2293 34.308 73.1493 34.284C73.0693 34.252 72.9413 34.236 72.7653 34.236C72.6453 34.236 72.5173 34.26 72.3813 34.308C72.2533 34.356 72.1293 34.428 72.0093 34.524C71.8893 34.612 71.7893 34.728 71.7093 34.872C71.6373 35.016 71.6013 35.184 71.6013 35.376V38.592C71.6013 38.704 71.5893 38.8 71.5653 38.88C71.5413 38.96 71.4893 39.02 71.4093 39.06C71.3373 39.1 71.2213 39.12 71.0613 39.12ZM77.7811 39.18C77.3011 39.18 76.8731 39.1 76.4971 38.94C76.1211 38.78 75.8011 38.564 75.5371 38.292C75.2811 38.012 75.0851 37.692 74.9491 37.332C74.8131 36.972 74.7451 36.584 74.7451 36.168C74.7451 35.616 74.8731 35.124 75.1291 34.692C75.3851 34.26 75.7371 33.92 76.1851 33.672C76.6411 33.416 77.1611 33.288 77.7451 33.288C78.1451 33.288 78.5011 33.352 78.8131 33.48C79.1331 33.6 79.4051 33.764 79.6291 33.972C79.8531 34.18 80.0251 34.412 80.1451 34.668C80.2651 34.924 80.3251 35.18 80.3251 35.436C80.3251 35.844 80.2291 36.132 80.0371 36.3C79.8451 36.46 79.6091 36.54 79.3291 36.54H75.8611C75.8531 36.892 75.9451 37.196 76.1371 37.452C76.3371 37.7 76.5851 37.892 76.8811 38.028C77.1851 38.164 77.4891 38.232 77.7931 38.232C78.0171 38.232 78.2091 38.22 78.3691 38.196C78.5291 38.172 78.6691 38.14 78.7891 38.1C78.9091 38.06 79.0131 38.02 79.1011 37.98C79.1891 37.94 79.2651 37.9 79.3291 37.86C79.4011 37.82 79.4691 37.792 79.5331 37.776C79.6051 37.76 79.6731 37.768 79.7371 37.8C79.8091 37.824 79.8651 37.876 79.9051 37.956C79.9531 38.02 79.9851 38.08 80.0011 38.136C80.0171 38.192 80.0251 38.252 80.0251 38.316C80.0251 38.428 79.9291 38.552 79.7371 38.688C79.5451 38.824 79.2771 38.94 78.9331 39.036C78.5971 39.132 78.2131 39.18 77.7811 39.18ZM75.8611 35.832H78.8731C79.0251 35.832 79.1371 35.812 79.2091 35.772C79.2891 35.732 79.3291 35.624 79.3291 35.448C79.3291 35.224 79.2611 35.024 79.1251 34.848C78.9891 34.664 78.8011 34.516 78.5611 34.404C78.3291 34.292 78.0611 34.236 77.7571 34.236C77.4051 34.236 77.0811 34.308 76.7851 34.452C76.4971 34.588 76.2691 34.776 76.1011 35.016C75.9331 35.256 75.8531 35.528 75.8611 35.832Z" fill="#1A54F8"/>
</svg>
