<svg width="118" height="46" viewBox="0 0 118 46" fill="none" xmlns="http://www.w3.org/2000/svg">
<path d="M23.7852 1.64218L35.1778 5.43972V14.9336H29.4815V30.1237C29.4815 30.6273 29.2815 31.1102 28.9254 31.4663C28.5693 31.8224 28.0863 32.0225 27.5827 32.0225H8.59507C8.09148 32.0225 7.60853 31.8224 7.25244 31.4663C6.89635 31.1102 6.6963 30.6273 6.6963 30.1237V14.9336H1V5.43972L12.3926 1.64218C12.3926 3.15293 12.9927 4.60181 14.061 5.67008C15.1293 6.73834 16.5782 7.33848 18.0889 7.33848C19.5997 7.33848 21.0485 6.73834 22.1168 5.67008C23.1851 4.60181 23.7852 3.15293 23.7852 1.64218Z" stroke="#1A54F8" stroke-width="2" stroke-linecap="round" stroke-linejoin="round"/>
<path d="M79.1061 31.9711C81.4679 31.9711 83.3826 30.6079 83.3826 28.9263C83.3826 27.2446 81.4679 25.8814 79.1061 25.8814C76.7442 25.8814 74.8296 27.2446 74.8296 28.9263C74.8296 30.6079 76.7442 31.9711 79.1061 31.9711Z" stroke="#1A54F8" stroke-width="2" stroke-linecap="round" stroke-linejoin="round"/>
<path d="M102.627 31.9711C104.989 31.9711 106.903 30.6079 106.903 28.9263C106.903 27.2446 104.989 25.8814 102.627 25.8814C100.265 25.8814 98.3503 27.2446 98.3503 28.9263C98.3503 30.6079 100.265 31.9711 102.627 31.9711Z" stroke="#1A54F8" stroke-width="2" stroke-linecap="round" stroke-linejoin="round"/>
<path d="M102.627 25.8814H79.1061V4.56729H74.8296" stroke="#1A54F8" stroke-width="2" stroke-linecap="round" stroke-linejoin="round"/>
<path d="M79.106 7.61218L109.042 9.13462L106.903 19.7917H79.106" stroke="#1A54F8" stroke-width="2" stroke-linecap="round" stroke-linejoin="round"/>
<path d="M51.8049 15.4296C53.1369 15.4296 54.2168 14.3498 54.2168 13.0177C54.2168 11.6856 53.1369 10.6057 51.8049 10.6057C50.4728 10.6057 49.3929 11.6856 49.3929 13.0177C49.3929 14.3498 50.4728 15.4296 51.8049 15.4296Z" stroke="#1A54F8" stroke-width="2" stroke-linecap="round" stroke-linejoin="round"/>
<path d="M51.8049 23.4695C53.1369 23.4695 54.2168 22.3896 54.2168 21.0575C54.2168 19.7254 53.1369 18.6456 51.8049 18.6456C50.4728 18.6456 49.3929 19.7254 49.3929 21.0575C49.3929 22.3896 50.4728 23.4695 51.8049 23.4695Z" stroke="#1A54F8" stroke-width="2" stroke-linecap="round" stroke-linejoin="round"/>
<path d="M53.8952 14.304L62.2566 22.6655" stroke="#1A54F8" stroke-width="2" stroke-linecap="round" stroke-linejoin="round"/>
<path d="M53.8952 19.7711L62.2566 11.4097" stroke="#1A54F8" stroke-width="2" stroke-linecap="round" stroke-linejoin="round"/>
<path d="M35.5635 36.744C35.6675 36.744 35.7515 36.756 35.8155 36.78C35.8875 36.804 35.9435 36.852 35.9835 36.924C36.0235 36.988 36.0435 37.096 36.0435 37.248C36.0435 37.392 36.0195 37.5 35.9715 37.572C35.9315 37.644 35.8755 37.692 35.8035 37.716C35.7315 37.732 35.6435 37.74 35.5395 37.74H33.0555V44.592C33.0555 44.696 33.0395 44.788 33.0075 44.868C32.9835 44.948 32.9315 45.008 32.8515 45.048C32.7795 45.096 32.6675 45.12 32.5155 45.12C32.3555 45.12 32.2355 45.096 32.1555 45.048C32.0835 45.008 32.0355 44.948 32.0115 44.868C31.9955 44.78 31.9875 44.684 31.9875 44.58V37.74H29.4675C29.3635 37.74 29.2755 37.732 29.2035 37.716C29.1315 37.692 29.0755 37.644 29.0355 37.572C28.9955 37.5 28.9755 37.392 28.9755 37.248C28.9755 37.096 28.9915 36.988 29.0235 36.924C29.0635 36.852 29.1195 36.804 29.1915 36.78C29.2715 36.756 29.3595 36.744 29.4555 36.744H35.5635ZM40.5711 45.108C40.3951 45.108 40.2671 45.072 40.1871 45C40.1151 44.928 40.0711 44.816 40.0551 44.664L40.1031 44.064C40.0231 44.192 39.8991 44.34 39.7311 44.508C39.5631 44.668 39.3431 44.812 39.0711 44.94C38.7991 45.06 38.4671 45.12 38.0751 45.12C37.6911 45.12 37.3311 45.044 36.9951 44.892C36.6671 44.74 36.3751 44.528 36.1191 44.256C35.8711 43.984 35.6751 43.672 35.5311 43.32C35.3951 42.968 35.3271 42.592 35.3271 42.192C35.3271 41.8 35.3951 41.432 35.5311 41.088C35.6751 40.736 35.8751 40.428 36.1311 40.164C36.3871 39.9 36.6791 39.692 37.0071 39.54C37.3431 39.388 37.6991 39.312 38.0751 39.312C38.4271 39.312 38.7271 39.36 38.9751 39.456C39.2231 39.544 39.4351 39.664 39.6111 39.816C39.7951 39.96 39.9551 40.124 40.0911 40.308L40.0671 39.804C40.0591 39.628 40.0951 39.504 40.1751 39.432C40.2631 39.352 40.3991 39.312 40.5831 39.312C40.7351 39.312 40.8431 39.336 40.9071 39.384C40.9791 39.432 41.0271 39.5 41.0511 39.588C41.0751 39.676 41.0871 39.784 41.0871 39.912V44.544C41.0871 44.656 41.0751 44.756 41.0511 44.844C41.0271 44.932 40.9791 44.996 40.9071 45.036C40.8351 45.084 40.7231 45.108 40.5711 45.108ZM38.2551 44.112C38.5751 44.112 38.8671 44.028 39.1311 43.86C39.4031 43.692 39.6151 43.468 39.7671 43.188C39.9271 42.9 40.0071 42.572 40.0071 42.204C40.0071 41.828 39.9231 41.5 39.7551 41.22C39.5951 40.932 39.3791 40.708 39.1071 40.548C38.8431 40.38 38.5511 40.296 38.2311 40.296C37.8551 40.296 37.5271 40.384 37.2471 40.56C36.9751 40.728 36.7591 40.956 36.5991 41.244C36.4391 41.532 36.3591 41.86 36.3591 42.228C36.3591 42.588 36.4391 42.912 36.5991 43.2C36.7591 43.48 36.9791 43.704 37.2591 43.872C37.5471 44.032 37.8791 44.112 38.2551 44.112ZM45.0257 45.12C44.6657 45.12 44.3217 45.048 43.9937 44.904C43.6657 44.76 43.3777 44.556 43.1297 44.292C42.8897 44.028 42.6977 43.72 42.5537 43.368C42.4177 43.008 42.3497 42.616 42.3497 42.192C42.3497 41.776 42.4177 41.392 42.5537 41.04C42.6977 40.688 42.8897 40.384 43.1297 40.128C43.3777 39.864 43.6657 39.66 43.9937 39.516C44.3217 39.372 44.6657 39.3 45.0257 39.3C45.4177 39.3 45.7697 39.372 46.0817 39.516C46.4017 39.66 46.6737 39.864 46.8977 40.128C47.1297 40.384 47.3057 40.692 47.4257 41.052C47.5457 41.404 47.6057 41.788 47.6057 42.204C47.6137 42.628 47.5537 43.016 47.4257 43.368C47.3057 43.72 47.1337 44.028 46.9097 44.292C46.6857 44.556 46.4137 44.76 46.0937 44.904C45.7817 45.048 45.4257 45.12 45.0257 45.12ZM45.1817 44.1C45.5177 44.1 45.8177 44.02 46.0817 43.86C46.3537 43.7 46.5657 43.48 46.7177 43.2C46.8777 42.912 46.9577 42.584 46.9577 42.216C46.9577 41.84 46.8777 41.512 46.7177 41.232C46.5657 40.944 46.3537 40.72 46.0817 40.56C45.8177 40.4 45.5177 40.32 45.1817 40.32C44.8457 40.32 44.5417 40.4 44.2697 40.56C43.9977 40.72 43.7817 40.944 43.6217 41.232C43.4697 41.512 43.3937 41.84 43.3937 42.216C43.3937 42.584 43.4697 42.912 43.6217 43.2C43.7817 43.48 43.9977 43.7 44.2697 43.86C44.5497 44.02 44.8537 44.1 45.1817 44.1ZM47.5337 45.12C47.3577 45.12 47.2297 45.088 47.1497 45.024C47.0697 44.96 47.0217 44.852 47.0057 44.7V37.188C47.0057 37.068 47.0137 36.968 47.0297 36.888C47.0537 36.808 47.1017 36.748 47.1737 36.708C47.2537 36.66 47.3697 36.636 47.5217 36.636C47.6737 36.636 47.7857 36.66 47.8577 36.708C47.9377 36.748 47.9897 36.808 48.0137 36.888C48.0377 36.968 48.0497 37.064 48.0497 37.176V44.568C48.0497 44.68 48.0377 44.78 48.0137 44.868C47.9897 44.948 47.9417 45.008 47.8697 45.048C47.7977 45.096 47.6857 45.12 47.5337 45.12ZM51.9803 45.144C51.5643 45.144 51.1723 45.076 50.8043 44.94C50.4443 44.804 50.1243 44.608 49.8443 44.352C49.5723 44.096 49.3563 43.792 49.1963 43.44C49.0443 43.08 48.9683 42.672 48.9683 42.216C48.9683 41.76 49.0443 41.356 49.1963 41.004C49.3563 40.644 49.5723 40.336 49.8443 40.08C50.1163 39.824 50.4323 39.628 50.7923 39.492C51.1603 39.356 51.5483 39.288 51.9563 39.288C52.2283 39.288 52.4963 39.332 52.7603 39.42C53.0243 39.5 53.2563 39.608 53.4563 39.744C53.6643 39.872 53.8123 40.008 53.9003 40.152C53.9803 40.256 54.0363 40.344 54.0683 40.416C54.1083 40.48 54.1123 40.556 54.0803 40.644C54.0483 40.708 54.0043 40.768 53.9483 40.824C53.8923 40.872 53.8363 40.912 53.7803 40.944C53.6363 41.056 53.4923 41.072 53.3483 40.992C53.2603 40.904 53.1603 40.824 53.0483 40.752C52.9443 40.672 52.8323 40.6 52.7123 40.536C52.5923 40.472 52.4683 40.424 52.3403 40.392C52.2203 40.352 52.0923 40.332 51.9563 40.332C51.5803 40.332 51.2483 40.412 50.9603 40.572C50.6723 40.724 50.4483 40.944 50.2883 41.232C50.1363 41.512 50.0603 41.84 50.0603 42.216C50.0603 42.592 50.1363 42.92 50.2883 43.2C50.4483 43.48 50.6683 43.7 50.9483 43.86C51.2363 44.02 51.5643 44.1 51.9323 44.1C52.1003 44.1 52.2603 44.08 52.4123 44.04C52.5723 43.992 52.7203 43.932 52.8563 43.86C52.9923 43.78 53.1043 43.696 53.1923 43.608C53.2723 43.552 53.3403 43.504 53.3963 43.464C53.4523 43.424 53.5203 43.404 53.6003 43.404C53.6643 43.404 53.7323 43.432 53.8043 43.488C53.8763 43.536 53.9523 43.612 54.0323 43.716C54.0963 43.788 54.1323 43.864 54.1403 43.944C54.1563 44.024 54.1443 44.1 54.1043 44.172C54.0643 44.244 54.0003 44.316 53.9123 44.388C53.7843 44.516 53.6123 44.64 53.3963 44.76C53.1883 44.872 52.9603 44.964 52.7123 45.036C52.4643 45.108 52.2203 45.144 51.9803 45.144ZM55.7117 45.12C55.5597 45.12 55.4437 45.096 55.3637 45.048C55.2837 45.008 55.2317 44.948 55.2077 44.868C55.1917 44.78 55.1837 44.68 55.1837 44.568V37.176C55.1837 37.064 55.1957 36.968 55.2197 36.888C55.2437 36.808 55.2957 36.748 55.3757 36.708C55.4557 36.66 55.5717 36.636 55.7237 36.636C55.8837 36.636 55.9997 36.66 56.0717 36.708C56.1517 36.748 56.1997 36.808 56.2157 36.888C56.2397 36.968 56.2517 37.068 56.2517 37.188V40.152C56.4437 39.928 56.6757 39.728 56.9477 39.552C57.2277 39.376 57.5677 39.288 57.9677 39.288C58.4397 39.288 58.8597 39.4 59.2277 39.624C59.6037 39.84 59.8997 40.148 60.1157 40.548C60.3397 40.948 60.4517 41.424 60.4517 41.976V44.58C60.4517 44.692 60.4397 44.788 60.4157 44.868C60.3917 44.948 60.3437 45.008 60.2717 45.048C60.1997 45.096 60.0837 45.12 59.9237 45.12C59.7717 45.12 59.6557 45.096 59.5757 45.048C59.4957 45.008 59.4437 44.948 59.4197 44.868C59.3957 44.78 59.3837 44.68 59.3837 44.568V41.964C59.3837 41.628 59.3277 41.336 59.2157 41.088C59.1037 40.84 58.9357 40.648 58.7117 40.512C58.4957 40.376 58.2197 40.308 57.8837 40.308C57.4277 40.308 57.0517 40.44 56.7557 40.704C56.4677 40.96 56.2997 41.304 56.2517 41.736V44.58C56.2517 44.692 56.2397 44.788 56.2157 44.868C56.1917 44.948 56.1397 45.008 56.0597 45.048C55.9877 45.096 55.8717 45.12 55.7117 45.12ZM63.9936 45.132C63.6416 45.132 63.3136 45.068 63.0096 44.94C62.7136 44.812 62.4536 44.632 62.2296 44.4C62.0056 44.168 61.8296 43.888 61.7016 43.56C61.5816 43.232 61.5216 42.86 61.5216 42.444V39.84C61.5216 39.728 61.5336 39.632 61.5576 39.552C61.5816 39.472 61.6296 39.412 61.7016 39.372C61.7816 39.324 61.8976 39.3 62.0496 39.3C62.2016 39.3 62.3136 39.324 62.3856 39.372C62.4656 39.42 62.5176 39.484 62.5416 39.564C62.5656 39.644 62.5776 39.74 62.5776 39.852V42.456C62.5776 42.784 62.6336 43.076 62.7456 43.332C62.8576 43.58 63.0256 43.772 63.2496 43.908C63.4816 44.044 63.7616 44.112 64.0896 44.112C64.4256 44.112 64.7136 44.044 64.9536 43.908C65.2016 43.772 65.3896 43.58 65.5176 43.332C65.6536 43.076 65.7216 42.784 65.7216 42.456V39.84C65.7216 39.728 65.7336 39.632 65.7576 39.552C65.7816 39.472 65.8296 39.412 65.9016 39.372C65.9816 39.324 66.0976 39.3 66.2496 39.3C66.4016 39.3 66.5136 39.324 66.5856 39.372C66.6656 39.42 66.7136 39.484 66.7296 39.564C66.7536 39.644 66.7656 39.74 66.7656 39.852V44.616C66.7656 44.712 66.7536 44.8 66.7296 44.88C66.7136 44.952 66.6656 45.008 66.5856 45.048C66.5136 45.088 66.4016 45.108 66.2496 45.108C66.1376 45.108 66.0456 45.096 65.9736 45.072C65.9096 45.048 65.8616 45.016 65.8296 44.976C65.7976 44.936 65.7736 44.892 65.7576 44.844C65.7496 44.788 65.7456 44.732 65.7456 44.676L65.7936 44.16C65.7136 44.256 65.6176 44.36 65.5056 44.472C65.3936 44.584 65.2616 44.692 65.1096 44.796C64.9656 44.892 64.8016 44.972 64.6176 45.036C64.4336 45.1 64.2256 45.132 63.9936 45.132ZM70.7132 45.12C70.3532 45.12 70.0092 45.048 69.6812 44.904C69.3532 44.76 69.0652 44.556 68.8172 44.292C68.5772 44.028 68.3852 43.72 68.2412 43.368C68.1052 43.008 68.0372 42.616 68.0372 42.192C68.0372 41.776 68.1052 41.392 68.2412 41.04C68.3852 40.688 68.5772 40.384 68.8172 40.128C69.0652 39.864 69.3532 39.66 69.6812 39.516C70.0092 39.372 70.3532 39.3 70.7132 39.3C71.1052 39.3 71.4572 39.372 71.7692 39.516C72.0892 39.66 72.3612 39.864 72.5852 40.128C72.8172 40.384 72.9932 40.692 73.1132 41.052C73.2332 41.404 73.2932 41.788 73.2932 42.204C73.3012 42.628 73.2412 43.016 73.1132 43.368C72.9932 43.72 72.8212 44.028 72.5972 44.292C72.3732 44.556 72.1012 44.76 71.7812 44.904C71.4692 45.048 71.1132 45.12 70.7132 45.12ZM70.8692 44.1C71.2052 44.1 71.5052 44.02 71.7692 43.86C72.0412 43.7 72.2532 43.48 72.4052 43.2C72.5652 42.912 72.6452 42.584 72.6452 42.216C72.6452 41.84 72.5652 41.512 72.4052 41.232C72.2532 40.944 72.0412 40.72 71.7692 40.56C71.5052 40.4 71.2052 40.32 70.8692 40.32C70.5332 40.32 70.2292 40.4 69.9572 40.56C69.6852 40.72 69.4692 40.944 69.3092 41.232C69.1572 41.512 69.0812 41.84 69.0812 42.216C69.0812 42.584 69.1572 42.912 69.3092 43.2C69.4692 43.48 69.6852 43.7 69.9572 43.86C70.2372 44.02 70.5412 44.1 70.8692 44.1ZM73.2212 45.12C73.0452 45.12 72.9172 45.088 72.8372 45.024C72.7572 44.96 72.7092 44.852 72.6932 44.7V37.188C72.6932 37.068 72.7012 36.968 72.7172 36.888C72.7412 36.808 72.7892 36.748 72.8612 36.708C72.9412 36.66 73.0572 36.636 73.2092 36.636C73.3612 36.636 73.4732 36.66 73.5452 36.708C73.6252 36.748 73.6772 36.808 73.7012 36.888C73.7252 36.968 73.7372 37.064 73.7372 37.176V44.568C73.7372 44.68 73.7252 44.78 73.7012 44.868C73.6772 44.948 73.6292 45.008 73.5572 45.048C73.4852 45.096 73.3732 45.12 73.2212 45.12Z" fill="#1A54F8"/>
</svg>
